<?xml version="1.0" standalone="no"?>
<!DOCTYPE svg PUBLIC "-//W3C//DTD SVG 20010904//EN"
 "http://www.w3.org/TR/2001/REC-SVG-20010904/DTD/svg10.dtd">
<svg version="1.0" xmlns="http://www.w3.org/2000/svg"
 width="960.000000pt" height="176.000000pt" viewBox="0 0 960.000000 176.000000"
 preserveAspectRatio="xMidYMid meet">

<g transform="translate(0.000000,176.000000) scale(0.100000,-0.100000)"
fill="#000000" stroke="none">
<path d="M8783 1466 c-95 -31 -157 -72 -236 -156 -210 -222 -207 -564 5 -779
108 -111 219 -161 371 -169 118 -6 185 7 283 53 74 36 154 109 154 143 0 28
-158 272 -176 272 -3 0 -21 -12 -40 -26 -46 -36 -99 -53 -162 -54 -81 0 -135
36 -167 112 -21 52 -19 98 8 149 59 112 198 127 320 34 25 -19 52 -32 60 -30
22 9 167 268 167 298 0 19 -65 77 -121 110 -123 71 -323 89 -466 43z"/>
<path d="M6430 1331 c-198 -560 -320 -914 -320 -926 0 -13 31 -15 209 -15
l209 0 7 29 c3 16 12 34 19 40 7 6 61 14 119 18 121 7 137 1 137 -53 l0 -34
225 0 c124 0 225 3 225 7 0 3 -18 58 -39 122 -22 64 -67 202 -101 306 -56 174
-171 460 -238 594 l-27 54 -187 2 -187 2 -51 -146z m284 -367 c50 -50 30 -134
-32 -134 -62 0 -83 74 -36 129 14 17 29 31 34 31 4 0 19 -12 34 -26z"/>
<path d="M525 1457 c-85 -29 -154 -84 -189 -153 -23 -46 -34 -136 -25 -196 15
-91 51 -135 169 -204 182 -107 218 -153 185 -239 -10 -28 -28 -51 -48 -64 -42
-26 -145 -42 -218 -34 -85 9 -91 4 -74 -54 7 -26 16 -67 20 -90 7 -47 19 -53
100 -53 133 0 274 58 350 142 53 59 79 131 79 218 0 135 -42 191 -209 280
-133 71 -165 103 -165 164 0 108 101 141 258 86 31 -11 63 -20 72 -20 9 0 30
31 52 75 l37 75 -23 15 c-79 52 -284 81 -371 52z"/>
<path d="M7325 1458 c-3 -7 -2 -137 3 -288 4 -151 5 -340 1 -420 -4 -80 -7
-194 -8 -253 l-1 -108 383 3 c357 3 385 4 422 23 58 28 123 97 153 163 23 49
27 70 27 147 0 100 -20 154 -77 207 l-30 28 32 50 c46 72 61 130 50 190 -26
136 -91 203 -243 247 -75 22 -704 32 -712 11z m500 -272 c27 -12 35 -21 35
-40 0 -33 -26 -46 -89 -46 -46 0 -51 2 -57 25 -3 14 -3 36 0 50 5 21 12 25 42
25 19 0 50 -7 69 -14z m46 -402 c47 -43 -1 -86 -91 -82 -49 3 -56 6 -64 29 -5
14 -6 39 -2 54 7 27 8 28 72 22 43 -3 72 -11 85 -23z"/>
<path d="M1049 1371 c-19 -20 -29 -40 -29 -60 0 -66 36 -101 105 -101 73 0
107 31 107 98 0 85 -120 126 -183 63z"/>
<path d="M1882 1367 c-7 -8 -13 -66 -14 -138 l-3 -124 -39 -5 c-32 -4 -41 -10
-49 -33 -5 -15 -6 -43 -3 -62 6 -30 11 -35 44 -40 20 -4 42 -8 47 -9 6 -2 10
-91 10 -244 0 -227 1 -242 21 -269 34 -46 79 -63 171 -63 90 0 176 15 191 33
6 7 12 37 14 67 l3 55 -95 -3 c-132 -5 -134 -3 -139 170 -1 72 0 160 4 196 l7
65 99 -6 c54 -3 101 -2 103 2 3 4 6 38 7 76 l3 70 -105 5 -104 5 2 117 3 116
-28 6 c-15 3 -45 8 -67 12 -22 3 -47 8 -56 10 -9 2 -21 -2 -27 -9z"/>
<path d="M2610 1146 c-62 -16 -108 -46 -164 -106 -118 -126 -145 -317 -66
-476 36 -73 91 -126 169 -163 50 -23 68 -26 171 -26 105 0 120 2 176 28 34 16
78 46 99 67 l37 38 -22 43 c-37 72 -35 72 -101 29 -99 -64 -202 -76 -286 -35
-59 30 -77 47 -97 96 l-15 36 217 17 c119 10 232 23 251 29 48 16 63 48 55
117 -25 220 -221 361 -424 306z m122 -146 c44 -13 103 -75 113 -120 4 -17 4
-34 1 -37 -9 -9 -246 -34 -291 -31 -49 4 -56 27 -27 85 26 50 61 81 109 98 47
17 49 17 95 5z"/>
<path d="M1520 1134 c-102 -28 -159 -84 -181 -180 -23 -101 16 -168 143 -241
83 -48 105 -75 94 -117 -10 -40 -50 -60 -124 -62 -35 -2 -69 -7 -74 -12 -6 -6
-7 -37 -3 -76 l7 -66 69 0 c197 0 325 144 279 312 -15 52 -51 91 -123 134 -81
48 -107 73 -107 99 0 34 33 55 100 65 34 5 65 11 68 14 10 10 -30 134 -45 140
-21 9 -41 7 -103 -10z"/>
<path d="M4652 1132 c-64 -23 -114 -62 -164 -127 -52 -69 -73 -141 -73 -255 0
-86 3 -102 32 -162 62 -131 162 -207 283 -216 85 -6 146 13 219 69 59 45 65
43 75 -24 l7 -40 75 5 c41 3 77 8 81 12 3 3 2 97 -4 209 -10 186 -8 252 12
424 7 61 7 63 -18 72 -15 6 -49 13 -76 17 l-50 6 -7 -38 c-10 -57 -12 -58 -54
-20 -65 59 -115 79 -205 83 -60 3 -93 -1 -133 -15z m265 -178 c110 -89 118
-270 16 -366 -86 -82 -204 -73 -284 21 -76 88 -78 210 -5 306 43 56 89 76 168
72 57 -2 72 -7 105 -33z"/>
<path d="M5470 1134 c-136 -36 -212 -153 -180 -275 15 -58 48 -91 143 -146 83
-48 104 -75 93 -117 -10 -40 -49 -60 -129 -63 -38 -1 -72 -4 -74 -7 -3 -3 -2
-37 2 -75 l7 -71 68 0 c156 0 271 87 286 216 12 102 -25 168 -129 230 -81 48
-107 73 -107 99 0 34 33 56 94 64 77 11 82 17 61 88 -23 80 -33 84 -135 57z"/>
<path d="M3477 1120 c-27 -10 -72 -37 -101 -59 -29 -23 -55 -41 -58 -41 -3 0
-8 23 -12 50 -4 29 -12 50 -19 50 -16 0 -159 -30 -167 -35 -4 -2 0 -37 8 -77
10 -51 15 -154 16 -343 l1 -270 88 -3 87 -3 0 245 0 244 25 30 c34 40 119 82
167 82 47 0 93 -22 110 -53 10 -16 13 -90 14 -282 l1 -260 84 -5 c46 -3 87 -5
91 -3 3 2 6 111 5 243 -1 274 -3 267 87 328 52 35 98 41 155 21 62 -22 66 -44
66 -329 l0 -255 83 -5 c52 -3 87 -1 92 5 12 14 10 506 -1 570 -15 80 -39 117
-99 147 -104 55 -243 30 -344 -63 l-54 -49 -12 29 c-39 95 -190 139 -313 91z"/>
<path d="M1026 1101 c-4 -5 -2 -70 4 -143 5 -73 10 -231 10 -350 l0 -218 90 0
90 0 2 290 c1 160 3 320 3 358 l0 67 -97 3 c-55 1 -99 -1 -102 -7z"/>
</g>
</svg>
